<svg width="24" height="24" viewBox="0 0 24 24" fill="none" xmlns="http://www.w3.org/2000/svg">
<path d="M15.8713 0.00012207C11.3818 0.00012207 7.74231 3.55362 7.74231 7.93709H24.0003C24.0003 3.55362 20.3608 0.00012207 15.8713 0.00012207Z" fill="#3540FA"/>
<path d="M24 16.063C24 11.6795 20.3605 8.12604 15.871 8.12604L15.871 24C20.3605 24 24 20.4465 24 16.063Z" fill="#F9A823"/>
<path d="M8.12912 23.9999C12.6186 23.9999 16.2581 20.4464 16.2581 16.0629H0.000125885C0.000125885 20.4464 3.6396 23.9999 8.12912 23.9999Z" fill="#3540FA"/>
<path d="M0.000732777 7.93687C0.000732581 12.3203 3.64021 15.8738 8.12973 15.8738L8.12973 -9.97889e-05C3.64021 -9.99805e-05 0.000732973 3.5534 0.000732777 7.93687Z" fill="#F9A823"/>
</svg>
