<svg width="24" height="24" viewBox="0 0 24 24" fill="none" xmlns="http://www.w3.org/2000/svg">
<path fill-rule="evenodd" clip-rule="evenodd" d="M8.76923 17.5383C13.6123 17.5383 17.5385 13.6122 17.5385 8.76911C17.5385 7.69514 17.3454 6.66626 16.9921 5.71529C20.991 6.53073 23.9999 10.0678 23.9999 14.3076C23.9999 19.1507 20.0738 23.0768 15.2307 23.0768C11.4615 23.0768 8.24777 20.6989 7.0078 17.3614C7.57684 17.4774 8.16592 17.5383 8.76923 17.5383ZM7.0078 17.3614C3.00888 16.5459 0 13.0089 0 8.76911C0 3.926 3.92612 -0.00012207 8.76923 -0.00012207C12.5384 -0.00012207 15.7521 2.37781 16.9921 5.71529C16.4231 5.59926 15.834 5.53833 15.2307 5.53833C10.3875 5.53833 6.46143 9.46445 6.46143 14.3076C6.46143 15.3815 6.65449 16.4104 7.0078 17.3614Z" fill="#F9A823"/>
<path d="M8.76924 17.5384C13.6124 17.5384 17.5385 13.6123 17.5385 8.76915C17.5385 7.69518 17.3454 6.6663 16.9921 5.71533C20.991 6.53076 23.9999 10.0678 23.9999 14.3076C23.9999 19.1507 20.0738 23.0768 15.2307 23.0768C11.4615 23.0768 8.24778 20.6989 7.00781 17.3614C7.57685 17.4775 8.16593 17.5384 8.76924 17.5384Z" fill="#333FFA"/>
</svg>
