<svg width="31" height="30" viewBox="0 0 31 30" fill="none" xmlns="http://www.w3.org/2000/svg">
<path fill-rule="evenodd" clip-rule="evenodd" d="M28.0447 2.51507C28.7988 3.26893 29.3873 4.17196 29.7723 5.16633C30.2163 6.34606 30.4532 7.5936 30.4726 8.85396C30.5657 10.4457 30.5657 10.9614 30.5657 15.0247V15.025C30.5657 19.0885 30.5441 19.5958 30.4726 21.1959C30.4476 22.4401 30.2131 23.6677 29.7756 24.832C29.3901 25.8263 28.8015 26.7293 28.0474 27.4833C27.2933 28.2374 26.3903 28.826 25.3961 29.2116C24.2321 29.6476 23.0027 29.8832 21.76 29.9085C20.1715 30 19.6509 30 15.589 30C11.5271 30 11.0198 29.9784 9.41803 29.9085C8.1728 29.8676 6.9437 29.6144 5.78363 29.16C4.78906 28.7751 3.88572 28.1869 3.13133 27.4331C2.37694 26.6793 1.78808 25.7764 1.40239 24.7821C0.964933 23.6161 0.730402 22.3886 0.705452 21.1444C0.612305 19.5526 0.612305 19.0353 0.612305 14.9734C0.612305 10.9098 0.633928 10.4025 0.705452 8.8024C0.729761 7.55961 0.96544 6.33003 1.40239 5.16633C1.787 4.1717 2.37528 3.26844 3.12949 2.51452C3.8837 1.7606 4.78718 1.17266 5.78197 0.788423C6.94423 0.350302 8.17283 0.114033 9.4147 0.0898202C11.0032 0 11.5238 0 15.5857 0C19.6476 0 20.1549 0.0199599 21.7567 0.0898202C22.9995 0.115338 24.229 0.351558 25.3927 0.788423C26.3873 1.17311 27.2905 1.7612 28.0447 2.51507ZM27.2291 23.829C27.5607 22.9295 27.7356 21.9799 27.7464 21.0213V21.023H27.7647C27.8362 19.4328 27.8362 18.997 27.8362 14.9454V14.9451C27.8362 10.8916 27.8179 10.4474 27.7464 8.8656C27.7309 7.91777 27.556 6.97929 27.2291 6.08949C26.9791 5.44257 26.5967 4.85505 26.1063 4.36465C25.6159 3.87426 25.0284 3.4918 24.3814 3.24185C23.4921 2.91096 22.5524 2.73596 21.6037 2.72455C19.9952 2.63307 19.5794 2.63307 15.5258 2.63307C11.4723 2.63307 11.0281 2.65303 9.4463 2.72455C8.49824 2.7378 7.55939 2.91274 6.67019 3.24185C5.35781 3.74418 4.31823 4.77711 3.81091 6.08949C3.47933 6.98839 3.30436 7.9375 3.29361 8.89554C3.20545 10.5073 3.20545 10.9215 3.20545 14.975V14.9751C3.20545 19.0269 3.22208 19.4727 3.29361 21.0529C3.3091 22.0007 3.48397 22.9392 3.81091 23.829C4.0618 24.4771 4.44593 25.0652 4.93847 25.5555C5.431 26.0457 6.02096 26.4271 6.67019 26.675C7.55895 27.0057 8.49808 27.1807 9.4463 27.1923C11.0564 27.2838 11.4706 27.2838 15.5258 27.2838C19.5777 27.2838 20.0235 27.2655 21.6037 27.1923C22.5524 27.18 23.4919 27.0051 24.3814 26.675C25.0284 26.4256 25.616 26.0435 26.1064 25.5534C26.5969 25.0632 26.9793 24.4758 27.2291 23.829ZM23.5731 8.78246C24.5634 8.78246 25.3662 7.97967 25.3662 6.98938C25.3662 5.99909 24.5634 5.1963 23.5731 5.1963C22.5828 5.1963 21.78 5.99909 21.78 6.98938C21.78 7.97967 22.5828 8.78246 23.5731 8.78246ZM15.5775 7.2722C13.5376 7.2722 11.5813 8.08253 10.1389 9.52492C8.69654 10.9673 7.88621 12.9236 7.88621 14.9635C7.88621 17.0033 8.69654 18.9596 10.1389 20.402C11.5813 21.8444 13.5376 22.6548 15.5775 22.6548C17.6174 22.6548 19.5737 21.8444 21.0161 20.402C22.4585 18.9596 23.2688 17.0033 23.2688 14.9635C23.2688 12.9236 22.4585 10.9673 21.0161 9.52492C19.5737 8.08253 17.6174 7.2722 15.5775 7.2722ZM15.5775 19.9585C14.2523 19.9585 12.9814 19.4321 12.0443 18.495C11.1073 17.5579 10.5808 16.287 10.5808 14.9618C10.5808 13.6366 11.1073 12.3657 12.0443 11.4286C12.9814 10.4916 14.2523 9.96514 15.5775 9.96514C16.9027 9.96514 18.1736 10.4916 19.1107 11.4286C20.0477 12.3657 20.5742 13.6366 20.5742 14.9618C20.5742 16.287 20.0477 17.5579 19.1107 18.495C18.1736 19.4321 16.9027 19.9585 15.5775 19.9585Z" fill="#212121"/>
</svg>
