<svg width="29" height="28" viewBox="0 0 29 28" fill="none" xmlns="http://www.w3.org/2000/svg">
<path fill-rule="evenodd" clip-rule="evenodd" d="M7.4335 3.38911C7.4335 5.24765 5.92685 6.7543 4.06831 6.7543C2.20977 6.7543 0.703125 5.24765 0.703125 3.38911C0.703125 1.53057 2.20977 0.0239258 4.06831 0.0239258C5.92685 0.0239258 7.4335 1.53057 7.4335 3.38911ZM10.6115 27.9744V9.30442H16.1761V11.8575H16.2545C17.0281 10.3918 18.9199 8.84302 21.7422 8.84302C27.6205 8.84302 28.7032 12.7081 28.7032 17.7374V27.976H22.9034V18.8955C22.9034 16.7315 22.8665 13.9462 19.8873 13.9462C16.8666 13.9462 16.4083 16.3055 16.4083 18.7417V27.9744H10.6115ZM6.97103 9.30442H1.16501V27.9744H6.97103V9.30442Z" fill="#212121"/>
</svg>
