<svg width="198" height="68" viewBox="0 0 198 68" fill="none" xmlns="http://www.w3.org/2000/svg">
<path d="M28.588 3.646V5.144H33.754V3.646H28.588ZM30.1 6.628V7.986H32.564V6.628H30.1ZM34.16 12.536V13.656H36.26V12.536H34.16ZM38.542 12.536V13.656H40.67V12.536H38.542ZM30.1 9.47V10.842H32.564V9.47H30.1ZM29.218 4.444V13.222H30.604V4.444H29.218ZM31.682 4.43V16.26H33.082V4.43H31.682ZM37.716 10.03V16.26H39.074V10.03H37.716ZM33.712 10.464V14.174H34.93V10.464H33.712ZM39.872 10.464V14.146H41.132V10.464H39.872ZM28.336 12.872L28.616 14.426C29.764 14.216 31.15 13.936 32.48 13.67L32.354 12.228C30.884 12.48 29.386 12.732 28.336 12.872ZM35.7 10.044V12.508C35.7 13.6 35.49 14.58 33.95 15.238C34.23 15.462 34.622 16.008 34.776 16.33C36.75 15.49 37.044 14.104 37.044 12.536V10.044H35.7ZM33.348 8.714L33.502 9.862C34.496 9.778 35.686 9.652 36.89 9.54L36.876 8.462C35.546 8.56 34.272 8.658 33.348 8.714ZM33.516 5.872C34.16 6.404 34.888 7.188 35.196 7.734L35.91 6.656C35.602 6.124 34.846 5.41 34.216 4.892L33.516 5.872ZM36.022 7.804C36.344 8.476 36.596 9.358 36.624 9.918L37.66 9.582C37.618 9.022 37.338 8.168 37.002 7.524L36.022 7.804ZM35.196 3.114C34.972 3.884 34.538 5.004 34.174 5.718L35.056 6.068C35.49 5.438 36.05 4.402 36.554 3.52L35.196 3.114ZM36.232 4.92C35.7 6.152 34.776 7.86 33.978 8.924L34.832 9.288C35.644 8.308 36.666 6.684 37.45 5.354L36.232 4.92ZM37.408 8.672L37.618 9.834C38.598 9.736 39.774 9.61 40.964 9.47L40.936 8.42C39.62 8.518 38.346 8.616 37.408 8.672ZM37.282 5.844C37.954 6.362 38.696 7.146 39.004 7.706L39.718 6.586C39.396 6.04 38.626 5.326 37.94 4.822L37.282 5.844ZM39.914 7.818C40.278 8.574 40.572 9.54 40.628 10.156L41.692 9.792C41.636 9.176 41.3 8.224 40.908 7.496L39.914 7.818ZM39.004 3.114C38.766 3.898 38.318 5.004 37.926 5.718L38.878 6.096C39.326 5.452 39.886 4.43 40.39 3.534L39.004 3.114ZM40.068 4.878C39.55 6.096 38.64 7.818 37.856 8.868L38.738 9.274C39.564 8.28 40.572 6.656 41.37 5.34L40.068 4.878ZM56.644 7.3V8.56H59.472V7.3H56.644ZM55.594 11.388V12.508H60.158V11.388H55.594ZM50.82 3.604V4.92H54.656V3.604H50.82ZM54.222 3.604V3.842C53.466 5.634 51.422 7.104 49.294 7.734C49.588 8.028 49.994 8.602 50.19 8.966C52.584 8.098 54.782 6.502 55.818 4.052L54.768 3.548L54.502 3.604H54.222ZM57.204 3.114L55.86 3.506C56.994 6.054 58.926 7.902 61.67 8.784C61.894 8.378 62.328 7.776 62.664 7.454C60.074 6.782 58.142 5.186 57.204 3.114ZM59.304 3.198C58.87 3.716 58.1 4.43 57.554 4.85L58.52 5.592C59.094 5.2 59.85 4.626 60.508 4.052L59.304 3.198ZM61.11 4.598C60.662 5.116 59.864 5.83 59.29 6.25L60.298 6.992C60.886 6.614 61.656 6.026 62.314 5.438L61.11 4.598ZM51.17 7.384V8.644H53.508V11.038H54.978V7.384H51.17ZM50.904 9.638C50.736 10.758 50.428 12.186 50.176 13.11L51.534 13.334C51.786 12.368 52.08 10.856 52.29 9.638H50.904ZM53.494 11.78V11.976C53.368 13.754 53.242 14.524 53.018 14.734C52.892 14.846 52.738 14.86 52.5 14.86C52.192 14.86 51.506 14.846 50.792 14.776C51.058 15.168 51.24 15.756 51.282 16.204C52.024 16.218 52.752 16.218 53.158 16.19C53.634 16.134 53.97 16.036 54.278 15.714C54.656 15.322 54.824 14.384 54.964 12.354C54.992 12.172 55.006 11.78 55.006 11.78H53.494ZM56 7.3V8.294C56 8.952 55.86 9.694 54.81 10.296C55.09 10.492 55.65 11.052 55.86 11.346C57.12 10.548 57.4 9.358 57.4 8.322V7.3H56ZM59.822 11.388V11.57C59.136 13.572 57.232 14.65 54.768 15.042C55.02 15.35 55.328 15.91 55.468 16.26C58.296 15.658 60.41 14.398 61.292 11.654L60.368 11.346L60.116 11.388H59.822ZM57.288 12.41L56.014 12.746C56.994 14.608 58.702 15.784 61.152 16.26C61.362 15.854 61.782 15.238 62.118 14.902C59.836 14.608 58.1 13.754 57.288 12.41ZM51.618 9.638L51.394 10.87H54.012V9.638H51.618ZM51.226 11.78L50.988 12.998H53.914V11.78H51.226ZM58.66 7.3V9.386C58.66 10.17 58.758 10.436 58.982 10.674C59.206 10.898 59.598 10.982 59.92 10.982C60.116 10.982 60.424 10.982 60.634 10.982C60.83 10.982 61.138 10.954 61.32 10.884C61.544 10.814 61.726 10.688 61.824 10.506C61.936 10.324 61.992 9.946 62.034 9.582C61.656 9.47 61.124 9.204 60.872 8.98C60.858 9.274 60.844 9.498 60.816 9.61C60.774 9.708 60.732 9.764 60.676 9.778C60.648 9.792 60.564 9.792 60.494 9.792C60.424 9.792 60.326 9.792 60.256 9.792C60.186 9.792 60.144 9.778 60.102 9.736C60.074 9.694 60.074 9.582 60.074 9.414V7.3H58.66ZM50.358 5.816C50.918 6.138 51.66 6.628 51.996 6.964L52.99 5.984C52.612 5.662 51.87 5.214 51.296 4.934L50.358 5.816ZM72.576 4.416V16.246H74.214V4.416H72.576ZM70.448 7.048V8.616H76.062V7.048H70.448ZM72.674 7.678C72.226 9.232 71.246 11.262 70.266 12.382C70.532 12.802 70.896 13.502 71.05 13.992C72.128 12.606 73.122 10.114 73.654 8.112L72.674 7.678ZM75.082 3.24C73.92 3.716 72.156 4.15 70.56 4.388C70.728 4.752 70.938 5.312 71.008 5.69C72.646 5.494 74.564 5.144 76.02 4.612L75.082 3.24ZM74.172 8.686L73.444 9.358C73.864 9.96 74.732 11.374 75.054 12.088L76.034 10.772C75.754 10.422 74.522 9.022 74.172 8.686ZM80.332 3.1V16.246H81.984V3.1H80.332ZM75.824 12.13L76.076 13.74L83.636 12.41L83.384 10.828L75.824 12.13ZM76.734 4.906C77.504 5.522 78.428 6.418 78.82 7.02L79.996 5.97C79.562 5.368 78.596 4.528 77.826 3.954L76.734 4.906ZM76.216 8.588C77.028 9.204 78.008 10.128 78.456 10.744L79.604 9.666C79.128 9.05 78.092 8.196 77.28 7.622L76.216 8.588ZM96.39 5.116V6.656H104.216V5.116H96.39ZM96.642 8.336V9.862H102.62V8.336H96.642ZM99.414 3.114V9.162H101.066V3.114H99.414ZM98.462 9.554L96.95 9.988C98.224 13.138 100.338 15.294 103.698 16.274C103.922 15.84 104.398 15.168 104.762 14.832C101.598 14.048 99.47 12.144 98.462 9.554ZM102.452 8.336V8.602C101.598 11.864 98.966 13.922 95.578 14.72C95.9 15.07 96.306 15.784 96.474 16.232C100.198 15.14 103.012 12.872 104.132 8.714L103.054 8.28L102.76 8.336H102.452ZM91.378 10.226L91.812 11.836C93.114 11.5 94.78 11.066 96.334 10.646L96.124 9.106C94.416 9.54 92.61 9.974 91.378 10.226ZM91.56 5.774V7.342H96.208V5.774H91.56ZM93.17 3.114V14.398C93.17 14.594 93.1 14.664 92.904 14.664C92.722 14.664 92.134 14.664 91.588 14.65C91.784 15.084 92.008 15.756 92.05 16.19C93.058 16.19 93.73 16.134 94.206 15.882C94.682 15.63 94.822 15.21 94.822 14.412V3.114H93.17Z" fill="white"/>
<path d="M113.241 31.0075C140.124 31.0075 167.005 31.0075 193.888 31.0094C194.658 31.0094 195.435 30.9519 196.186 31.2023C197.545 31.6548 197.87 32.6451 196.974 33.767C193.972 37.528 190.951 41.2759 187.933 45.0276C182.906 51.2773 177.871 57.5214 172.851 63.7767C170.987 66.0985 168.474 67.0926 165.613 67.1037C154.118 67.15 142.624 67.1167 131.13 67.1167C88.7358 67.1167 46.3436 67.1167 3.94952 67.1111C3.21142 67.1111 2.46962 67.1908 1.73153 67.0332C-0.113709 66.6401 -0.506865 65.5997 0.661475 64.1383C2.82198 61.44 4.98804 58.7473 7.15411 56.0545C13.0348 48.7478 18.908 41.4373 24.8016 34.1416C26.4855 32.0572 28.8166 31.2616 31.3907 31.0261C31.8821 30.9816 32.3791 31.0075 32.8724 31.0075C59.6627 31.0075 86.4529 31.0075 113.241 31.0075ZM46.3473 47.6851C46.5939 48.0709 46.5216 48.3212 46.5235 48.5623C46.5253 50.2907 46.5513 52.0191 46.5086 53.7475C46.4919 54.4114 46.7219 54.6043 47.358 54.5746C48.3446 54.5301 49.3349 54.5375 50.3215 54.5728C50.8927 54.5932 51.0744 54.3743 51.0707 53.8198C51.0559 50.4242 51.054 47.0305 51.0744 43.6349C51.0781 43.0618 50.863 42.8819 50.3104 42.8949C48.9825 42.9246 47.6547 42.9153 46.3269 42.9061C45.8948 42.9023 45.5869 43.0266 45.3069 43.3956C44.3351 44.6715 43.3337 45.9233 42.3137 47.1603C41.9595 47.5905 41.7073 48.1358 41.0471 48.4807C41.0471 46.7987 41.0286 45.2335 41.0582 43.6701C41.0694 43.1323 40.9432 42.8838 40.3498 42.8968C38.9608 42.9302 37.5718 42.9098 36.1827 42.9116C35.8656 42.9116 35.5893 42.9728 35.3686 43.2528C32.5646 46.8135 29.7513 50.3686 26.9417 53.9274C26.8304 54.0683 26.658 54.2204 26.7396 54.4114C26.849 54.6673 27.116 54.5635 27.3145 54.5653C28.2102 54.5765 29.1078 54.5283 29.9998 54.5802C30.6266 54.6173 31.0383 54.3892 31.4111 53.907C32.7704 52.1526 34.1558 50.4168 35.5392 48.681C35.7933 48.362 35.975 47.9559 36.5091 47.7204C36.5091 49.5452 36.4998 51.2625 36.511 52.9797C36.524 54.8009 36.2773 54.3892 38.0502 54.6099C40.2849 54.8862 41.7314 54.111 42.8923 52.2138C43.8604 50.6227 45.1474 49.2318 46.3473 47.6851ZM71.717 48.7236C71.717 50.4205 71.717 52.1174 71.717 53.8143C71.717 54.1833 71.6465 54.5857 72.2325 54.5746C75.808 54.5023 79.3946 54.8287 82.9553 54.3465C85.5127 54.0016 87.0908 52.581 87.5396 50.3C87.7844 49.0537 87.7733 47.789 87.4061 46.5465C87.0352 45.2835 86.2415 44.386 85.0694 43.8296C84.2312 43.4309 83.3429 43.1768 82.4119 43.0748C79.0571 42.7113 75.6912 42.9747 72.3308 42.8931C71.8394 42.8801 71.7003 43.0655 71.7058 43.5421C71.7318 45.2687 71.7188 46.9971 71.717 48.7236ZM95.7699 54.5616C97.2183 54.5616 98.3922 54.5338 99.5624 54.5746C100.122 54.5932 100.484 54.3873 100.809 53.9571C101.626 52.874 102.47 51.8095 103.314 50.7451C104.414 49.3616 105.525 47.9856 106.656 46.5761C106.932 46.9433 106.836 47.2586 106.836 47.5535C106.843 49.6231 106.856 51.6927 106.827 53.7623C106.817 54.3651 107.016 54.5932 107.622 54.5728C108.64 54.5412 109.662 54.5412 110.68 54.5783C111.257 54.5987 111.428 54.3725 111.424 53.8217C111.407 50.4242 111.405 47.0268 111.422 43.6293C111.426 43.0526 111.209 42.8875 110.654 42.8968C108.987 42.9246 107.318 42.9172 105.649 42.9005C105.176 42.8949 104.861 43.0451 104.557 43.4346C102.697 45.8176 100.801 48.1729 98.9245 50.5429C97.9193 51.8095 96.9234 53.0929 95.7699 54.5616ZM136.76 54.5802C138.398 54.5802 140.043 54.4726 141.667 54.6117C143.13 54.736 144.163 54.3002 144.859 53.0224C144.987 52.7869 145.354 52.5922 145.241 52.3344C145.094 51.9969 144.69 52.1786 144.406 52.1767C141.287 52.1638 138.168 52.1582 135.048 52.1805C134.461 52.1842 134.234 52.0432 134.26 51.3997C134.31 50.1368 134.242 48.8702 134.257 47.6035C134.275 45.9122 134.761 45.3892 136.462 45.328C138.005 45.2724 139.56 45.1871 141.09 45.3336C142.695 45.4875 143.833 45.0165 144.569 43.5867C144.664 43.4049 144.944 43.2695 144.844 43.047C144.718 42.7633 144.408 42.8949 144.178 42.8949C141.398 42.8894 138.62 42.8986 135.84 42.8931C135.034 42.8912 134.238 42.9747 133.446 43.1082C131.096 43.5069 129.841 44.9145 129.804 47.2808C129.77 49.4413 129.819 51.6037 129.778 53.7642C129.765 54.443 130.028 54.5987 130.642 54.5913C132.684 54.5635 134.722 54.5802 136.76 54.5802ZM60.4304 54.582C62.068 54.582 63.7129 54.4782 65.3393 54.6117C66.8285 54.7341 67.9115 54.3372 68.5847 52.9779C68.7015 52.7424 69.1021 52.5903 68.9463 52.2991C68.8054 52.0358 68.4419 52.1656 68.1767 52.1656C65.0574 52.1619 61.9381 52.1545 58.8189 52.1805C58.1957 52.186 57.9268 52.0265 57.9528 51.3515C57.9992 50.1182 57.9547 48.8813 57.9695 47.648C57.9899 45.8621 58.4758 45.3596 60.295 45.3151C61.8083 45.278 63.3346 45.1815 64.8312 45.3355C66.4057 45.4968 67.5109 45.0202 68.2416 43.6367C68.2565 43.6108 68.2843 43.5904 68.301 43.5663C68.4104 43.3938 68.6607 43.2491 68.5254 43.0118C68.3974 42.7837 68.1341 42.8931 67.9338 42.8931C64.9684 42.8931 62.0049 42.9023 59.0395 42.9023C58.3237 42.9023 57.6246 43.0155 56.931 43.1694C54.6351 43.6812 53.5539 44.9757 53.5224 47.3328C53.4946 49.4617 53.5409 51.5944 53.4964 53.7234C53.4816 54.443 53.7431 54.6043 54.4107 54.5913C56.4154 54.5561 58.4238 54.5802 60.4304 54.582ZM129.277 42.9005C128.89 42.9005 128.591 42.9005 128.291 42.9005C124.552 42.9005 120.806 43.0285 117.076 42.8449C115.389 42.7614 114.628 43.6386 113.835 44.7513C113.542 45.1611 113.64 45.3447 114.159 45.3392C115.457 45.3243 116.757 45.3707 118.052 45.3151C118.784 45.2835 119.011 45.5061 118.996 46.2534C118.948 48.6624 119.007 51.0733 118.959 53.4805C118.944 54.2872 119.102 54.6822 120.012 54.5783C120.745 54.4949 121.503 54.4837 122.232 54.5802C123.252 54.7156 123.402 54.2371 123.387 53.3766C123.345 51.1215 123.374 48.8664 123.374 46.6114C123.374 45.328 123.372 45.328 124.641 45.3299C127.747 45.3318 127.747 45.3318 129.188 43.1583C129.209 43.1323 129.212 43.0989 129.277 42.9005ZM90.1545 48.8071C90.1545 50.4743 90.1693 52.1415 90.1452 53.8087C90.1378 54.3595 90.3121 54.5895 90.887 54.5709C91.9367 54.5375 92.9882 54.5468 94.0378 54.5672C94.494 54.5765 94.7092 54.4504 94.7073 53.9459C94.6962 50.4873 94.698 47.0286 94.7147 43.5718C94.7166 43.0377 94.4959 42.8801 93.9896 42.8949C93.0012 42.9227 92.0108 42.9394 91.0242 42.8875C90.3103 42.8504 90.1248 43.1379 90.1396 43.8055C90.1786 45.4727 90.1526 47.1399 90.1545 48.8071ZM162.71 54.5691C162.35 54.0869 162.124 53.7642 161.879 53.4564C160.789 52.0803 159.708 50.6968 158.591 49.3412C158.233 48.9054 158.219 48.592 158.59 48.1506C159.537 47.0175 160.459 45.8584 161.351 44.6808C161.759 44.1412 162.317 43.6812 162.523 42.9061C161.178 42.9061 159.916 42.9116 158.654 42.9023C158.259 42.8986 158.044 43.136 157.829 43.4105C156.611 44.9608 155.409 46.5242 154.152 48.043C153.736 48.5438 153.714 48.885 154.129 49.3931C155.416 50.9657 156.659 52.5755 157.911 54.1778C158.118 54.443 158.367 54.5728 158.701 54.5728C159.962 54.5653 161.225 54.5691 162.71 54.5691ZM147.19 48.7014C147.19 50.3686 147.221 52.0358 147.175 53.703C147.155 54.4151 147.403 54.6117 148.082 54.5746C149.037 54.5227 149.996 54.5468 150.953 54.5728C151.444 54.5857 151.689 54.4615 151.685 53.9089C151.669 50.452 151.674 46.9934 151.682 43.5366C151.683 43.0637 151.494 42.8782 151.016 42.8912C149.998 42.9172 148.976 42.9394 147.96 42.8949C147.329 42.8671 147.169 43.1119 147.179 43.7016C147.21 45.367 147.19 47.0342 147.19 48.7014ZM144.041 47.7778C142.125 47.7778 140.337 47.8446 138.559 47.7537C137.404 47.6944 136.517 47.9244 136 49.0296C135.914 49.2114 135.608 49.3134 135.733 49.5619C135.848 49.7918 136.115 49.7158 136.322 49.7158C137.865 49.7177 139.423 49.586 140.949 49.7473C142.517 49.9161 143.353 49.1836 144.041 47.7778ZM63.0471 49.7195C63.0471 49.7177 63.0471 49.7158 63.0471 49.7121C63.6925 49.7121 64.3509 49.6324 64.9832 49.7288C66.1868 49.9124 66.9824 49.4321 67.5388 48.4139C67.6241 48.26 67.8614 48.1599 67.7965 47.9577C67.7094 47.6833 67.4368 47.7816 67.2402 47.7797C65.5785 47.7723 63.9076 47.8854 62.259 47.7408C60.9979 47.6313 60.3396 48.2285 59.7517 49.1502C59.4512 49.6194 59.6144 49.7288 60.0948 49.7232C61.0776 49.7102 62.0624 49.7195 63.0471 49.7195Z" fill="white"/>
<path d="M76.0063 48.7496C76.0063 47.8539 76.0286 46.9582 75.9989 46.0624C75.9804 45.5302 76.1176 45.2539 76.7148 45.2835C78.1019 45.3503 79.4947 45.239 80.8781 45.456C82.2189 45.6674 82.842 46.2479 83.0739 47.5794C83.2185 48.4121 83.1925 49.2466 83.0034 50.0645C82.7679 51.0881 82.1336 51.7446 81.084 51.9616C79.5855 52.2695 78.0685 52.1545 76.5553 52.1842C76.0879 52.1934 75.9989 51.9301 76.0045 51.5314C76.0193 50.6041 76.01 49.6787 76.01 48.7515C76.01 48.7496 76.0082 48.7496 76.0063 48.7496Z" fill="white"/>
</svg>
