<svg width="360" height="340" viewBox="0 0 360 340" fill="none" xmlns="http://www.w3.org/2000/svg">
<rect width="360" height="340" fill="#F0F2F5"/>
<path d="M326.828 244.76C317.335 261.214 309.53 279.04 297.822 293.701C290.545 302.771 277.782 311.315 266.602 312.686C229.475 317.221 225.15 311.948 223.568 273.871C223.357 268.176 222.197 262.375 220.826 250.983C195.406 284.735 183.171 333.886 124 305.936C138.345 279.989 152.478 254.042 166.928 228.201C178.32 208.161 190.449 188.437 201.735 168.186C218.822 137.809 237.596 128.633 271.559 137.703C277.993 139.391 285.165 148.673 286.642 155.634C289.174 167.131 287.275 179.471 287.275 200.988C298.561 181.264 303.624 168.186 312.273 158.376C320.183 149.411 331.258 138.864 342.016 137.387C391.273 130.847 395.914 136.121 395.703 186.538C395.598 217.126 394.754 247.819 395.809 278.407C396.652 301.822 390.64 314.163 363.639 314.268C337.481 314.374 328.832 304.248 331.363 279.778C332.524 268.703 331.574 257.523 331.574 246.342C330.203 245.815 328.516 245.288 326.828 244.76Z" fill="url(#paint0_linear_2_173)"/>
<circle cx="229" cy="137" r="14" fill="#FF7A2E" fill-opacity="0.86"/>
<circle cx="203" cy="107" r="7" fill="#333FFA"/>
<defs>
<linearGradient id="paint0_linear_2_173" x1="290" y1="197.5" x2="149" y2="297" gradientUnits="userSpaceOnUse">
<stop stop-color="white"/>
<stop offset="1" stop-color="white" stop-opacity="0"/>
</linearGradient>
</defs>
</svg>
