<svg width="37" height="30" viewBox="0 0 37 30" fill="none" xmlns="http://www.w3.org/2000/svg">
<path d="M36.4745 4.35983C35.1372 4.94295 33.7007 5.33696 32.1905 5.51505C33.7487 4.59748 34.9145 3.15334 35.4704 1.45208C34.0063 2.30784 32.404 2.9102 30.7331 3.23298C29.6095 2.05233 28.1212 1.26978 26.4993 1.00682C24.8774 0.743858 23.2127 1.0152 21.7635 1.77872C20.3144 2.54223 19.162 3.75521 18.4851 5.22932C17.8083 6.70343 17.6449 8.3562 18.0204 9.93103C15.054 9.78446 12.152 9.02569 9.50276 7.70398C6.85356 6.38226 4.51637 4.52714 2.64287 2.259C2.00227 3.34645 1.63392 4.60726 1.63392 5.95003C1.63321 7.15882 1.9357 8.3491 2.51455 9.41525C3.09341 10.4814 3.93073 11.3905 4.95223 12.0618C3.76756 12.0247 2.60903 11.7097 1.57307 11.143V11.2375C1.57295 12.9329 2.16888 14.5761 3.25974 15.8884C4.3506 17.2006 5.8692 18.101 7.55786 18.4368C6.45889 18.7295 5.3067 18.7726 4.18831 18.5629C4.66475 20.0216 5.59282 21.2973 6.84258 22.2112C8.09234 23.1251 9.60124 23.6316 11.158 23.6597C8.51529 25.7013 5.25153 26.8087 1.89177 26.8038C1.29662 26.804 0.701976 26.7698 0.110901 26.7014C3.52125 28.8592 7.49114 30.0044 11.5456 30C25.2704 30 32.7734 18.8134 32.7734 9.11151C32.7734 8.7963 32.7654 8.47795 32.751 8.16275C34.2104 7.12411 35.4702 5.83796 36.4713 4.36456L36.4745 4.35983Z" fill="#212121"/>
</svg>
